<svg id="Flat" height="512" viewBox="0 0 512 512" width="512" xmlns="http://www.w3.org/2000/svg"><g><g><circle cx="256" cy="256" fill="#fdbf44" r="192"/><g fill="#fff2da"><g><path d="m189.038 377.188-2.076-10.376a19.778 19.778 0 0 1 10.549-21.568l7.556-3.778a19.776 19.776 0 0 0 10.933-17.689 19.776 19.776 0 0 0 -19.777-19.777h-28.223l-21.619-10.81a20 20 0 0 0 -20.038 1.248l-14.343 9.562h-41.926a192.644 192.644 0 0 0 77.36 110.283l31.055-15.528a19.776 19.776 0 0 0 10.549-21.567z"/><path d="m310.91 165.821 11.562 23.123a20 20 0 0 0 17.889 11.056h31.639a20 20 0 0 1 20 20v28l51.118 51.118a192.032 192.032 0 0 0 -78.25-201.193l-49.239 43.9a20 20 0 0 0 -4.719 23.996z"/><path d="m261.545 388.673a20 20 0 0 0 -8.092 9.271l-19.412 48.808a193.283 193.283 0 0 0 21.959 1.248 190.9 190.9 0 0 0 106.013-31.99l-66.013-48.01z"/></g><path d="m104 200h16v16h-16z"/><path d="m296 224h16v16h-16z"/><path d="m162.84 125.87 24.968-18.726a10 10 0 0 1 9.163-1.487l38.1 12.7a10 10 0 0 1 6.416 6.613l21 70a10 10 0 0 1 -1.77 9.12l-20.914 26.143a10 10 0 0 1 -15.618 0l-21.717-27.147a10 10 0 0 0 -6.394-3.652l-41.1-5.872a10 10 0 0 1 -8.287-12.325l12.45-49.8a10 10 0 0 1 3.703-5.567z"/></g><path d="m136.715 328.331a73.78 73.78 0 0 1 -29.115-46.264l-3.6-22.831 43.14-19.236 43.14 19.236-3.633 23.019a73.763 73.763 0 0 1 -29.5 46.535l-9.97 7.248z" fill="#25b1fa"/><path d="m216.028 136 35.519-15.679a10 10 0 0 0 0-16.642l-30.481-12.32a20 20 0 0 0 -11.094-3.359h-26.69l-71.282-48h-24l32 56-48 8-32-24h-16l16 56z" fill="#25b1fa"/></g><g><g><path d="m352.786 448.858a163.72 163.72 0 0 1 -63.652-102.518l-.074-.442-9.179-59.023 104.119-47.018 104.12 47.021-9.291 59.614-.039.219a163.655 163.655 0 0 1 -64.48 103.117l-30.31 22.315z" fill="#25b1fa"/><path d="m371.919 423.209a131.832 131.832 0 0 1 -51.256-82.345l-5.42-34.846 68.757-31.05 68.752 31.049-5.485 35.189a131.757 131.757 0 0 1 -51.928 82.854l-11.212 8.254z" fill="#fafeff"/></g><path d="m374.38 380.6a7.978 7.978 0 0 1 -5.656-2.343l-24-24 11.313-11.315 18.343 18.344 42.344-42.344 11.313 11.315-48 48a7.979 7.979 0 0 1 -5.657 2.343z" fill="#25b1fa"/></g></g></svg>